<svg width="697" height="697" viewBox="0 0 697 697" fill="none" xmlns="http://www.w3.org/2000/svg">
<path d="M111.672 313.134C117.545 312.123 122.919 309.693 128.015 306.664C143.173 297.652 154.144 282.503 158.392 265.387C159.172 267.947 161.827 274.978 162.809 277.038C166.413 284.589 170.401 291.735 177.23 296.866C206.121 318.581 235.115 286.302 241.637 260.025C241.927 262.12 245.927 275.75 246.897 277.994C251.92 289.621 260.355 301.934 273.037 305.88C299.226 314.029 318.472 290.076 324.472 267.731C324.472 267.731 325.525 271.97 326.213 274.04C327.38 277.552 328.717 280.988 330.452 284.265C335.534 293.868 343.261 302.706 353.654 306.597C378.079 315.742 405.705 296.479 409.788 272.004C409.788 272.004 410.53 275.373 411.168 276.968C412.947 281.426 415.265 285.682 417.886 289.7C424.047 299.149 432.38 307.674 442.825 312.272C464.009 321.598 502.745 304.515 501.512 277.562C501.504 277.561 503.108 281.324 503.229 281.539C504.697 284.125 506.432 286.577 508.172 288.983C512.398 294.82 516.944 300.336 522.457 305.011C542.152 321.714 559.404 319.96 582.172 312.313" stroke="black" stroke-width="17.3855" stroke-miterlimit="1.5" stroke-linecap="round" stroke-linejoin="round"/>
<path d="M108.193 369.168C113.898 368.482 119.325 366.324 124.525 363.98C139.235 357.349 150.606 346.732 160.945 334.655C160.953 334.647 164.786 340.953 165.165 341.481C168.834 346.576 173.688 350.861 179.138 353.978C199.791 365.789 226.317 357.602 236.411 336.44C236.411 338.45 240.112 343.628 240.899 344.527C247.05 351.552 254.519 358.188 263.39 361.47C284.816 369.399 313.133 358.687 323.806 338.335C323.96 341.722 327.587 347.23 327.953 347.685C333.72 354.873 341.981 360.535 351.012 362.56C372.501 367.381 395.734 356.722 405.873 337.145C407.43 342.026 410.589 347.009 411.472 347.994C418.061 355.348 426.25 361.293 435.705 364.321C458.972 371.772 490.863 358.145 500.127 341.742C499.758 343.109 500.472 345.994 500.595 346.232C502.012 348.934 503.948 351.322 506.058 353.513C511.71 359.379 518.62 364.059 525.813 367.82C547.055 378.927 579.457 379.74 592.956 355.846" stroke="black" stroke-width="17.3855" stroke-miterlimit="1.5" stroke-linecap="round" stroke-linejoin="round"/>
<path d="M105.294 434.725C110.689 434.142 116.099 436.248 121.812 435.053C141.916 430.845 153.71 417.559 165.211 402.369C166.034 405.104 167.808 407.31 168.824 408.508C174.057 414.686 180.716 420.186 188.342 423.129C208.762 431.01 225.504 418.612 235.291 401.751C235.291 401.751 236.537 403.726 237.279 404.626C238.663 406.305 240.119 407.929 241.629 409.496C247.242 415.317 253.895 419.934 261.651 422.422C281.819 428.894 307.073 419.524 317.131 400.588C317.214 401.255 322.125 408.63 322.618 409.227C329.646 417.717 338.042 423.857 348.55 427.297C372 434.977 391.672 420.278 402.069 400.056C402.452 402.731 407.38 408.668 407.88 409.238C413.853 416.045 420.415 422.144 428.508 426.366C449.02 437.069 486.101 434.986 493.19 407.168C493.107 407.152 495.048 410.622 495.354 411.076C497.491 414.253 499.998 417.19 502.724 419.879C509.398 426.453 517.653 431.474 526.332 434.94C542.751 441.502 561.362 437.158 575.566 427.221C580.001 424.121 582.982 419.027 587.21 416.128" stroke="black" stroke-width="17.3855" stroke-miterlimit="1.5" stroke-linecap="round" stroke-linejoin="round"/>
</svg>
